<svg width="152" height="91" viewBox="0 0 152 91" fill="none" xmlns="http://www.w3.org/2000/svg">
<path d="M42.8855 32.958C42.8855 34.8203 43.0868 36.3302 43.4391 37.4375C43.8418 38.5448 44.3451 39.7527 45.0497 41.0613C45.3014 41.464 45.4021 41.8666 45.4021 42.2189C45.4021 42.7223 45.1001 43.2256 44.4458 43.7289L41.2749 45.8428C40.8219 46.1448 40.3689 46.2958 39.9663 46.2958C39.463 46.2958 38.9597 46.0441 38.4564 45.5911C37.7517 44.8362 37.1477 44.0309 36.6444 43.2256C36.1411 42.3699 35.6378 41.4137 35.0842 40.256C31.1583 44.8865 26.2259 47.2017 20.2868 47.2017C16.059 47.2017 12.6868 45.9938 10.2206 43.5779C7.75437 41.162 6.49609 37.9408 6.49609 33.9143C6.49609 29.6362 8.00603 26.1633 11.0762 23.5461C14.1464 20.9289 18.2232 19.6203 23.4074 19.6203C25.1186 19.6203 26.8802 19.7713 28.7425 20.0229C30.6047 20.2746 32.5173 20.6772 34.5305 21.1302V17.456C34.5305 13.6309 33.7252 10.9633 32.165 9.40306C30.5544 7.84279 27.8365 7.08782 23.961 7.08782C22.1994 7.08782 20.3875 7.28915 18.5252 7.74213C16.663 8.19511 14.8511 8.74875 13.0895 9.45339C12.2842 9.8057 11.6802 10.007 11.3279 10.1077C10.9756 10.2084 10.7239 10.2587 10.5226 10.2587C9.81795 10.2587 9.46563 9.75537 9.46563 8.69842V6.23219C9.46563 5.4269 9.56629 4.82292 9.81795 4.4706C10.0696 4.11829 10.5226 3.76597 11.2272 3.41365C12.9888 2.50769 15.1027 1.75272 17.5689 1.14875C20.0352 0.494446 22.6524 0.192459 25.4206 0.192459C31.41 0.192459 35.7888 1.5514 38.6073 4.26928C41.3756 6.98716 42.7848 11.1143 42.7848 16.6507V32.958H42.8855ZM22.4511 40.6084C24.112 40.6084 25.8232 40.3064 27.6352 39.7024C29.4471 39.0984 31.0577 37.9911 32.4166 36.4812C33.2219 35.5249 33.8259 34.468 34.1279 33.26C34.4299 32.0521 34.6312 30.5925 34.6312 28.8812V26.7673C33.1716 26.415 31.6113 26.113 30.0007 25.9117C28.3901 25.7103 26.8299 25.6097 25.2696 25.6097C21.8974 25.6097 19.4312 26.264 17.7703 27.6229C16.1093 28.9819 15.304 30.8944 15.304 33.411C15.304 35.7766 15.908 37.5382 17.1663 38.7461C18.3742 40.0044 20.1358 40.6084 22.4511 40.6084ZM62.867 46.0441C61.961 46.0441 61.357 45.8931 60.9544 45.5408C60.5517 45.2388 60.1994 44.5342 59.8974 43.5779L48.0696 4.67193C47.7676 3.66531 47.6166 3.011 47.6166 2.65868C47.6166 1.85339 48.0193 1.40041 48.8246 1.40041H53.757C54.7133 1.40041 55.3676 1.5514 55.7199 1.90372C56.1226 2.2057 56.4246 2.91034 56.7266 3.86663L65.1822 37.1858L73.0338 3.86663C73.2855 2.86001 73.5875 2.2057 73.9901 1.90372C74.3928 1.60173 75.0974 1.40041 76.0034 1.40041H80.0299C80.9862 1.40041 81.6405 1.5514 82.0431 1.90372C82.4458 2.2057 82.7981 2.91034 82.9994 3.86663L90.9517 37.5885L99.659 3.86663C99.961 2.86001 100.313 2.2057 100.666 1.90372C101.068 1.60173 101.723 1.40041 102.629 1.40041H107.309C108.115 1.40041 108.568 1.80306 108.568 2.65868C108.568 2.91034 108.517 3.162 108.467 3.46398C108.417 3.76597 108.316 4.16862 108.115 4.72226L95.9848 43.6282C95.6828 44.6348 95.3305 45.2891 94.9279 45.5911C94.5252 45.8931 93.8709 46.0944 93.0153 46.0944H88.6868C87.7305 46.0944 87.0762 45.9435 86.6736 45.5911C86.2709 45.2388 85.9186 44.5845 85.7173 43.5779L77.916 11.1143L70.165 43.5276C69.9133 44.5342 69.6113 45.1885 69.2087 45.5408C68.806 45.8931 68.1014 46.0441 67.1954 46.0441H62.867ZM127.542 47.4031C124.925 47.4031 122.308 47.1011 119.791 46.4971C117.275 45.8931 115.312 45.2388 114.003 44.4838C113.198 44.0309 112.644 43.5276 112.443 43.0746C112.242 42.6216 112.141 42.1183 112.141 41.6653V39.0984C112.141 38.0415 112.544 37.5382 113.299 37.5382C113.601 37.5382 113.903 37.5885 114.205 37.6891C114.507 37.7898 114.96 37.9911 115.463 38.1925C117.174 38.9474 119.036 39.5514 120.999 39.954C123.013 40.3567 124.976 40.558 126.989 40.558C130.16 40.558 132.626 40.0044 134.337 38.8971C136.048 37.7898 136.954 36.1792 136.954 34.1156C136.954 32.7064 136.501 31.5488 135.595 30.5925C134.689 29.6362 132.978 28.7805 130.512 27.9752L123.214 25.7103C119.54 24.5527 116.822 22.8415 115.161 20.5766C113.5 18.362 112.644 15.8958 112.644 13.2786C112.644 11.1646 113.097 9.30239 114.003 7.6918C114.909 6.0812 116.117 4.67193 117.627 3.56464C119.137 2.40703 120.848 1.5514 122.862 0.947426C124.875 0.343452 126.989 0.0917969 129.203 0.0917969C130.311 0.0917969 131.468 0.142128 132.576 0.293121C133.733 0.444115 134.79 0.645439 135.847 0.846764C136.854 1.09842 137.81 1.35008 138.716 1.65206C139.622 1.95405 140.327 2.25604 140.83 2.55802C141.535 2.96067 142.038 3.36332 142.34 3.8163C142.642 4.21895 142.793 4.77259 142.793 5.47723V7.84279C142.793 8.89974 142.39 9.45339 141.635 9.45339C141.233 9.45339 140.578 9.25206 139.723 8.84941C136.854 7.5408 133.633 6.8865 130.059 6.8865C127.19 6.8865 124.925 7.33948 123.365 8.29577C121.805 9.25206 120.999 10.7117 120.999 12.7752C120.999 14.1845 121.503 15.3925 122.509 16.3488C123.516 17.305 125.378 18.2613 128.046 19.117L135.193 21.3819C138.817 22.5395 141.434 24.1501 142.994 26.2137C144.554 28.2772 145.309 30.6428 145.309 33.26C145.309 35.4242 144.856 37.3872 144.001 39.0984C143.095 40.8097 141.887 42.3196 140.327 43.5276C138.766 44.7858 136.904 45.6918 134.74 46.3461C132.475 47.0507 130.109 47.4031 127.542 47.4031Z" fill="#9C9C9C"/>
<path d="M137.054 71.8642C120.495 84.0946 96.4372 90.5874 75.7511 90.5874C46.7604 90.5874 20.6385 79.8668 0.9087 62.0496C-0.651564 60.6403 0.757707 58.7277 2.61996 59.835C23.9604 72.2165 50.2835 79.7158 77.5127 79.7158C95.8835 79.7158 116.066 75.8907 134.639 68.039C137.407 66.7807 139.772 69.8509 137.054 71.8642ZM143.95 64.0125C141.836 61.2946 129.958 62.7039 124.572 63.3582C122.962 63.5595 122.71 62.1503 124.17 61.0933C133.632 54.4496 149.184 56.3622 150.996 58.5768C152.808 60.8417 150.493 76.394 141.635 83.843C140.276 85.0006 138.967 84.3966 139.571 82.8867C141.584 77.9039 146.064 66.6801 143.95 64.0125Z" fill="#9C9C9C"/>
</svg>
