<svg width="257" height="43" viewBox="0 0 257 43" fill="none" xmlns="http://www.w3.org/2000/svg">
<g clip-path="url(#clip0_1_6390)">
<mask id="mask0_1_6390" style="mask-type:luminance" maskUnits="userSpaceOnUse" x="0" y="0" width="257" height="43">
<path d="M0.613281 0.0927734H256.043V42.3708H0.613281V0.0927734Z" fill="white"/>
</mask>
<g mask="url(#mask0_1_6390)">
<path fill-rule="evenodd" clip-rule="evenodd" d="M177.478 0.244141V3.04999H174.816V5.82389H172.18V8.53156H169.469V0.244141H177.478Z" fill="#9C9C9C"/>
<path fill-rule="evenodd" clip-rule="evenodd" d="M177.478 0.244141V3.04999H174.816V5.82389H172.18V8.53156H169.469V0.244141H177.478ZM177.478 42.3817V39.5763H174.816V36.8024H172.18V34.0947H169.469V42.3817H177.478Z" fill="#9C9C9C"/>
<path fill-rule="evenodd" clip-rule="evenodd" d="M177.478 42.3814V39.576H174.816V36.8021H172.18V34.0944H169.469V42.3814H177.478ZM247.942 0.163067V2.96845H250.604V5.74235H253.241V8.45002H255.952V0.162598L247.942 0.163067Z" fill="#9C9C9C"/>
<path fill-rule="evenodd" clip-rule="evenodd" d="M247.945 0.163067V2.96845H250.607V5.74235H253.244V8.45002H255.955V0.162598L247.945 0.163067ZM247.945 42.3001V39.4947H250.607V36.7208H253.244V34.0136H255.955V42.3001H247.945Z" fill="#9C9C9C"/>
<path fill-rule="evenodd" clip-rule="evenodd" d="M247.945 42.3002V39.4948H250.607V36.7209H253.244V34.0137H255.955V42.3002H247.945Z" fill="#9C9C9C"/>
<path d="M32.1126 42.4025V33.0337H10.9947L10.0994 32.1383V26.8047L11.1634 25.7407H26.6277V16.5053H10.9492L10.1027 15.6593V10.3252L10.812 9.61589H31.5122V0.247559H-1.07422V42.4025H32.1126Z" fill="#9C9C9C"/>
<path d="M32.1126 42.4025V33.0337H10.9947L10.0994 32.1383V26.8047L11.1634 25.7407H26.6277V16.5053H10.9492L10.1027 15.6593V10.3252L10.812 9.61589H31.5122V0.247559H-1.07422V42.4025H32.1126ZM34.715 0.289367H46.0887V32.1454L47.0189 33.0755H66.9642V42.4443H34.7117V0.289837L34.715 0.289367Z" fill="#9C9C9C"/>
<path d="M34.7142 0.289062H46.0879V32.1451L47.0181 33.0752H66.9634V42.444H34.7109V0.289532L34.7142 0.289062ZM80.6652 0.289062H69.2915V42.444H80.6652V0.289062Z" fill="#9C9C9C"/>
<path d="M80.6628 0.289062H69.2891V42.444H80.6628V0.289062ZM98.5393 33.0756V31.8397L118.337 9.12375V0.289532H83.3418V9.65833H102.911V10.7886L83.1417 33.8099V42.4407H118.87V33.0719H98.5356L98.5393 33.0756Z" fill="#9C9C9C"/>
<path d="M98.5422 33.0761V31.8402L118.34 9.12426V0.290039H83.3446V9.65884H102.914V10.7891L83.1445 33.8104V42.4412H118.873V33.0724H98.5384L98.5422 33.0761Z" fill="#9C9C9C"/>
<path fill-rule="evenodd" clip-rule="evenodd" d="M137.065 0.289062H149.777L166.572 42.444H154.461L151.589 34.9857L150.718 34.2801H135.534L134.565 35.042L131.714 42.444H120.273L137.065 0.289062ZM142.603 13.3342L138.453 24.901L139.33 25.7789H146.943L147.751 24.9709L143.576 13.3342H142.603Z" fill="#9C9C9C"/>
<path fill-rule="evenodd" clip-rule="evenodd" d="M137.065 0.289707H149.777L166.572 42.4446H154.461L151.589 34.9863L150.718 34.2807H135.534L134.565 35.0427L131.714 42.4446H120.273L137.065 0.289707ZM142.603 13.3348L138.452 24.9016L139.33 25.7796H146.943L147.751 24.9716L143.576 13.3348H142.603ZM242.625 42.3817H220.51V39.6251H217.841V36.8686H215.169V27.8479H223.895V31.3241H226.567V34.0806H236.571V31.3241H239.24V28.5854H236.571V25.8289H223.182V23.0545H217.841V20.2985H215.169V5.77504H217.841V3.01852H220.51V0.244141H242.625V3.01852H245.297V5.77457H247.987V14.7962H239.244V12.0223H236.575V8.56257H226.571V11.3191H223.899V14.0578H226.571V16.8143H239.96V19.5708H245.301V22.3447H247.991V36.8752H245.301V39.6317H242.629V42.3882L242.625 42.3817Z" fill="#9C9C9C"/>
<path fill-rule="evenodd" clip-rule="evenodd" d="M242.63 42.3817H220.515V39.6251H217.846V36.8686H215.174V27.8479H223.9V31.3241H226.572V34.0806H236.576V31.3241H239.245V28.5854H236.576V25.8289H223.187V23.0545H217.846V20.2985H215.174V5.77504H217.846V3.01852H220.515V0.244141H242.63V3.01852H245.302V5.77457H247.992V14.7962H239.248V12.0223H236.58V8.56257H226.575V11.3191H223.903V14.0578H226.575V16.8143H239.965V19.5708H245.306V22.3447H247.995V36.8752H245.306V39.6317H242.634V42.3882L242.63 42.3817ZM204.705 42.3817H185.259V39.6251H182.587V36.8686H179.914V34.1126H177.242V8.52781H179.914V5.77128H182.587V3.01476H185.259V0.244141H204.705V3.01852H207.377V5.77457H210.067V8.53109H212.739V34.1191H210.067V36.8757H207.377V39.6322H204.705V42.3887V42.3817ZM198.648 30.6256H201.317V27.8507H203.989V14.7962H201.317V12.0223H198.648V9.26579H191.33V12.0223H188.64V14.7962H185.968V27.8517H188.64V30.626H191.33V33.3826H198.648V30.6256Z" fill="#9C9C9C"/>
<path fill-rule="evenodd" clip-rule="evenodd" d="M204.705 42.3817H185.259V39.6251H182.587V36.8686H179.914V34.1126H177.242V8.52781H179.914V5.77128H182.587V3.01476H185.259V0.244141H204.705V3.01852H207.377V5.77457H210.067V8.53109H212.739V34.1191H210.067V36.8757H207.377V39.6322H204.705V42.3887V42.3817ZM198.648 30.6256H201.317V27.8507H203.989V14.7962H201.317V12.0223H198.648V9.26579H191.33V12.0223H188.64V14.7962H185.968V27.8517H188.64V30.626H191.33V33.3826H198.648V30.6256Z" fill="#9C9C9C"/>
</g>
</g>
<defs>
<clipPath id="clip0_1_6390">
<rect width="255.547" height="42.278" fill="white" transform="translate(0.613281 0.0927734)"/>
</clipPath>
</defs>
</svg>
