<svg width="160" height="48" viewBox="0 0 160 48" fill="none" xmlns="http://www.w3.org/2000/svg">
<path d="M78.6906 22.794C77.0538 22.1157 75.0532 21.5503 72.6887 21.0977H72.6392C70.3444 20.6793 68.6227 20.2964 67.474 19.949C66.3267 19.6016 65.424 19.1319 64.766 18.5398C64.1067 17.9503 63.777 17.1325 63.777 16.0865C63.777 14.555 64.3349 13.3899 65.4506 12.5911C66.5637 11.7898 68.0313 11.3892 69.8531 11.3892C71.8462 11.3892 73.4582 11.9116 74.6893 12.9563C75.7961 13.8945 76.4744 15.085 76.7242 16.5278C76.7447 16.6647 76.8127 16.79 76.9163 16.8818C77.0199 16.9736 77.1525 17.026 77.2909 17.0298L82.8935 17.0736C82.9763 17.0735 83.0582 17.056 83.1339 17.0222C83.2095 16.9884 83.2772 16.939 83.3325 16.8773C83.3877 16.8155 83.4293 16.7429 83.4546 16.664C83.4799 16.5851 83.4883 16.5017 83.4792 16.4194C83.307 14.5384 82.6705 12.7296 81.6269 11.1553C80.4618 9.39807 78.8579 8.03198 76.8155 7.05701C74.773 6.08205 72.4528 5.5952 69.855 5.59647C67.3904 5.59647 65.1704 6.06557 63.1951 7.00377C61.2211 7.94323 59.6851 9.2491 58.5871 10.9214C57.4905 12.5899 56.9421 14.4682 56.9421 16.5563C56.9421 18.8536 57.4315 20.6983 58.4103 22.0904C59.3799 23.4747 60.7106 24.5665 62.2575 25.2473C63.8436 25.9598 65.7511 26.5253 67.9799 26.9437L68.2328 26.995C70.5948 27.4476 72.3584 27.8476 73.5235 28.195C74.6887 28.5449 75.6085 29.0324 76.283 29.6575C76.9575 30.2838 77.2947 31.1358 77.2947 32.2134C77.2947 33.7462 76.6874 34.9469 75.4728 35.8153C74.257 36.6851 72.6874 37.1199 70.7641 37.1199C68.468 37.1199 66.6113 36.5196 65.1938 35.319C63.9032 34.2286 63.1444 32.8264 62.9174 31.1123C62.9019 30.9709 62.8358 30.84 62.7313 30.7435C62.6268 30.6471 62.491 30.5916 62.3488 30.5874L56.7539 30.5018C56.6719 30.5015 56.5908 30.5183 56.5157 30.5511C56.4406 30.5839 56.3732 30.632 56.3177 30.6923C56.2622 30.7526 56.22 30.8238 56.1935 30.9013C56.1671 30.9789 56.1572 31.0611 56.1643 31.1427C56.2984 33.1734 56.9584 35.1343 58.0794 36.8328C59.3117 38.6965 61.0081 40.1583 63.1685 41.2182C65.3276 42.2794 67.8088 42.81 70.6119 42.81C73.211 42.81 75.54 42.3225 77.599 41.3475C79.6579 40.3751 81.27 39.0274 82.4352 37.3044C83.6016 35.5814 84.1841 33.6416 84.1829 31.485C84.1829 29.1865 83.6757 27.3329 82.6615 25.9243C81.661 24.5246 80.2832 23.4383 78.6887 22.7921M113.097 36.8594H112.222C111.715 36.8607 111.318 36.7212 111.032 36.441C110.747 36.1646 110.603 35.7127 110.602 35.0851V25.1161C110.602 21.9503 109.623 19.5408 107.666 17.8875C105.707 16.2349 103.402 15.3924 99.7925 15.3924C96.3807 15.3924 93.7163 16.1569 91.6244 17.6517C89.7163 19.0159 88.5658 20.8859 88.1727 23.2619C88.1567 23.3469 88.1594 23.4345 88.1806 23.5184C88.2017 23.6023 88.2409 23.6807 88.2954 23.748C88.3498 23.8153 88.4182 23.8699 88.4959 23.9081C88.5736 23.9463 88.6586 23.9672 88.7452 23.9693H93.8913C94.0188 23.9689 94.1425 23.9263 94.2433 23.8482C94.3441 23.7701 94.4162 23.6609 94.4485 23.5376C94.6843 22.6577 95.2029 21.9401 96.0042 21.3848C96.9303 20.742 98.0333 20.4187 99.4844 20.4187C102.223 20.4187 104.17 22.1588 104.17 24.7509V25.5611C104.172 25.6385 104.158 25.7154 104.129 25.7874C104.101 25.8594 104.058 25.9251 104.004 25.9808C103.951 26.0364 103.886 26.0809 103.815 26.1116C103.744 26.1424 103.668 26.1589 103.59 26.1601H98.9291C95.1484 26.1601 92.2793 26.9259 90.3217 28.4575C88.3629 29.989 87.3835 32.1633 87.3835 34.9805C87.3835 37.4173 88.2786 39.3317 90.0688 40.7238C91.4114 41.7659 93.0165 42.3669 94.6672 42.6312C95.93 42.8328 97.2251 42.907 98.4898 42.6978C99.8153 42.4791 100.892 41.9181 101.97 41.1136C102.938 40.3929 103.744 39.4705 104.48 38.3428C104.842 37.7076 105.785 37.9624 105.785 38.6984V39.5827C105.785 41.1916 107.048 42.4962 108.607 42.4962H113.097C113.175 42.4952 113.251 42.4789 113.323 42.4483C113.394 42.4176 113.458 42.3731 113.512 42.3175C113.567 42.2618 113.609 42.1961 113.638 42.1239C113.666 42.0518 113.68 41.9747 113.679 41.8972V37.4585C113.68 37.3809 113.666 37.3038 113.638 37.2317C113.609 37.1595 113.567 37.0938 113.512 37.0381C113.458 36.9825 113.394 36.938 113.323 36.9074C113.251 36.8767 113.175 36.8604 113.097 36.8594ZM104.172 31.485C104.172 32.7719 103.91 33.8939 103.387 34.8512C102.289 36.8556 100.329 37.9035 98.1189 37.9035C96.8371 37.9035 95.8083 37.5903 95.0324 36.964C94.2539 36.3377 93.8653 35.5028 93.8666 34.4594C93.8666 33.2765 94.2977 32.3637 95.1598 31.7209C96.0194 31.0768 97.2428 30.7548 98.8302 30.7548H103.59C103.668 30.7558 103.744 30.7721 103.816 30.8027C103.887 30.8334 103.952 30.8778 104.006 30.9335C104.06 30.9891 104.102 31.0549 104.131 31.1271C104.159 31.1992 104.173 31.2763 104.172 31.3538V31.485ZM131.856 5.97682H125.162C121.628 5.97682 118.764 8.93024 118.764 12.5702V15.4685C118.766 15.5461 118.752 15.6231 118.723 15.6953C118.694 15.7674 118.652 15.8332 118.598 15.8888C118.544 15.9445 118.479 15.9889 118.408 16.0196C118.337 16.0502 118.26 16.0665 118.182 16.0675H114.36C114.282 16.0685 114.206 16.0848 114.134 16.1155C114.063 16.1461 113.999 16.1906 113.945 16.2462C113.89 16.3019 113.848 16.3677 113.819 16.4398C113.791 16.5119 113.777 16.589 113.778 16.6666V21.1547C113.776 21.2325 113.79 21.3097 113.819 21.3821C113.847 21.4544 113.89 21.5204 113.944 21.5763C113.998 21.6322 114.063 21.6768 114.134 21.7075C114.205 21.7383 114.282 21.7547 114.36 21.7557H118.182C118.26 21.7567 118.337 21.773 118.408 21.8036C118.479 21.8343 118.544 21.8787 118.598 21.9344C118.652 21.99 118.694 22.0558 118.723 22.1279C118.752 22.2001 118.766 22.2771 118.764 22.3547V41.8972C118.763 41.9747 118.777 42.0519 118.805 42.1241C118.833 42.1963 118.876 42.2622 118.93 42.3181C118.983 42.3739 119.048 42.4185 119.119 42.4494C119.19 42.4803 119.267 42.4969 119.344 42.4981H124.563C124.641 42.4971 124.717 42.4808 124.789 42.45C124.86 42.4192 124.925 42.3746 124.979 42.3187C125.033 42.2629 125.075 42.1969 125.104 42.1245C125.132 42.0522 125.146 41.9749 125.145 41.8972V22.3547C125.143 22.2773 125.157 22.2004 125.186 22.1284C125.214 22.0564 125.257 21.9907 125.311 21.935C125.365 21.8794 125.429 21.8349 125.5 21.8042C125.571 21.7734 125.647 21.7569 125.725 21.7557H131.805C131.882 21.7547 131.959 21.7384 132.03 21.7077C132.101 21.6771 132.166 21.6326 132.22 21.577C132.274 21.5213 132.317 21.4555 132.345 21.3834C132.374 21.3113 132.388 21.2342 132.387 21.1566V16.6666C132.388 16.589 132.374 16.5119 132.345 16.4398C132.317 16.3677 132.274 16.3019 132.22 16.2462C132.166 16.1906 132.101 16.1461 132.03 16.1155C131.959 16.0848 131.882 16.0685 131.805 16.0675H125.725C125.647 16.0663 125.571 16.0498 125.5 16.019C125.429 15.9883 125.365 15.9438 125.311 15.8882C125.257 15.8325 125.214 15.7668 125.186 15.6948C125.157 15.6228 125.143 15.5459 125.145 15.4685V12.8631C125.145 12.2013 125.666 11.665 126.307 11.665H131.856C132.012 11.6625 132.161 11.5982 132.269 11.4863C132.378 11.3743 132.438 11.2239 132.436 11.0678V6.57777C132.438 6.50019 132.424 6.42308 132.395 6.35085C132.367 6.27862 132.325 6.2127 132.271 6.15687C132.217 6.10103 132.153 6.05639 132.081 6.02549C132.01 5.9946 131.934 5.97806 131.856 5.97682ZM157.418 21.4628C156.329 19.5589 154.722 18.0027 152.785 16.9747C150.826 15.9306 148.563 15.3943 145.999 15.3943C143.434 15.3943 141.222 15.9743 139.265 17.1059C137.306 18.2368 135.788 19.8368 134.709 21.9059C133.628 23.9776 133.088 26.4055 133.088 29.1896C133.088 31.9719 133.646 34.2939 134.758 36.365C135.838 38.4006 137.505 40.0645 139.543 41.1403C141.618 42.2534 144.057 42.81 146.859 42.81C149.019 42.81 150.953 42.4018 152.659 41.5853C154.362 40.7675 155.736 39.6455 156.782 38.2192C157.667 37.0244 158.293 35.6575 158.618 34.2065C158.639 34.1197 158.64 34.0294 158.621 33.942C158.603 33.8547 158.565 33.7726 158.511 33.7018C158.456 33.6311 158.387 33.5733 158.307 33.533C158.228 33.4926 158.14 33.4706 158.051 33.4686H152.811C152.688 33.4709 152.568 33.5119 152.469 33.586C152.37 33.6601 152.297 33.7633 152.26 33.8813C151.923 34.9626 151.235 35.9007 150.305 36.5475C149.259 37.2778 147.959 37.6429 146.406 37.6429C145.122 37.6429 144 37.3646 143.04 36.8081C142.078 36.251 141.29 35.4379 140.762 34.4594C140.543 34.0588 140.361 33.6394 140.218 33.2061C140.067 32.7384 139.953 32.2596 139.876 31.7741C139.85 31.6034 139.827 31.4322 139.807 31.2606C139.797 31.1782 139.804 31.0944 139.828 31.0149C139.852 30.9354 139.893 30.8619 139.948 30.7992C140.002 30.7365 140.069 30.6861 140.145 30.6513C140.22 30.6164 140.302 30.5979 140.385 30.5969H158.46C158.604 30.5963 158.743 30.5423 158.849 30.4454C158.956 30.3485 159.023 30.2155 159.038 30.072C159.063 29.8514 159.08 29.6264 159.089 29.3969C159.106 28.9798 159.114 28.5969 159.114 28.2483C159.114 25.6746 158.548 23.4115 157.418 21.4628ZM151.986 26.0574H140.665C140.576 26.0557 140.489 26.0343 140.41 25.9947C140.331 25.9551 140.262 25.8984 140.207 25.8286C140.153 25.7588 140.115 25.6778 140.095 25.5914C140.076 25.505 140.077 25.4153 140.096 25.3291C140.278 24.5113 140.591 23.7715 141.036 23.1097C141.593 22.2716 142.362 21.5958 143.265 21.1509C144.194 20.6957 145.216 20.4632 146.25 20.472C148.006 20.472 149.458 20.9595 150.605 21.9344C151.591 22.7712 152.24 23.9015 152.555 25.3253C152.575 25.4119 152.575 25.502 152.556 25.5889C152.537 25.6758 152.499 25.7573 152.444 25.8274C152.389 25.8976 152.32 25.9547 152.24 25.9945C152.161 26.0343 152.075 26.0558 151.986 26.0574ZM43.1468 24.228H38.1832C36.7018 24.228 35.5017 25.466 35.5017 26.9931V34.4176C35.5017 35.9447 34.2998 37.1827 32.8184 37.1827H13.0782C11.5948 37.1827 10.3948 38.4207 10.3948 39.9498V45.0655C10.3948 46.5926 11.5948 47.8287 13.0763 47.8287H33.9613C35.4447 47.8287 36.6276 46.5926 36.6276 45.0636V40.9596C36.6276 39.4325 37.8276 38.3485 39.3091 38.3485H43.1449C44.6283 38.3485 45.8283 37.1123 45.8283 35.5833V26.9608C45.8283 25.4337 44.6283 24.228 43.1468 24.228ZM10.3929 14.0669C10.3929 12.5379 11.5948 11.3017 13.0763 11.3017H32.8051C34.2884 11.3017 35.4884 10.0637 35.4884 8.53468V3.41896C35.4884 1.89185 34.2884 0.653809 32.807 0.653809H11.9314C10.448 0.653809 9.24803 1.89185 9.24803 3.42086V7.3613C9.24803 8.8884 8.04612 10.1264 6.56655 10.1264H2.74593C1.26256 10.1264 0.0644531 11.3645 0.0644531 12.8916V21.5237C0.0644531 23.0508 1.27017 24.2261 2.75163 24.2261H7.71521C9.19478 24.2261 10.3967 22.9899 10.3967 21.4609L10.3929 14.0669ZM20.6129 18.8498H25.3787C26.9324 18.8498 28.1933 20.1506 28.1933 21.7519V26.6641C28.1933 28.2654 26.9305 29.5643 25.3787 29.5643H20.6129C19.0592 29.5643 17.7983 28.2654 17.7983 26.6641V21.7519C17.7983 20.1506 19.0592 18.8498 20.6129 18.8498Z" fill="#9C9C9C"/>
</svg>
