<svg width="203" height="47" viewBox="0 0 203 47" fill="none" xmlns="http://www.w3.org/2000/svg">
<g clip-path="url(#clip0_5_9663)">
<path d="M179.23 45.6026H188.586V26.8413L202.669 1.31787H191.891L179.23 24.9601V45.6026Z" fill="#9C9C9C"/>
<path d="M181.875 20.7911L171.299 1.31802H160.673L171.299 20.7911H181.875ZM145.725 31.8241L152.894 45.6027H163.063L154.114 29.3328C158.233 26.4856 160.673 21.9096 160.673 16.6728C160.673 8.13106 155.335 1.36887 143.844 1.36887H125.439V45.6536H135.15V31.9258L145.725 31.8241ZM135.15 9.50383H143.895C148.623 9.50383 151.42 11.9952 151.42 16.5202C151.42 21.0962 148.928 23.2824 144.2 23.2824H135.15V9.50383ZM51.4613 45.6027H61.2741V10.0631H75.4086V1.31802H37.3268V10.0631H51.4613V45.6027ZM17.9045 15.3508V22.113C12.9219 22.113 9.31199 19.9776 9.31199 15.5034C9.31199 11.0291 12.4643 8.38527 18.1588 8.38527C22.8364 8.38527 25.6836 10.3173 26.3446 12.8595H34.988C34.3778 5.74141 27.6665 -0.00390625 17.9554 -0.00390625C7.73584 -0.00390625 0.465217 6.35153 0.465217 15.7067C0.465217 25.0619 8.0409 30.553 17.9554 30.553V24.1976C23.1923 24.1976 26.8022 26.5364 26.8022 31.1123C26.8022 35.6882 23.0906 38.2304 18.0062 38.2304C13.3795 38.2304 10.1763 36.1967 9.2103 33.4003H0.160156C1.43124 40.7726 8.19343 46.5179 17.9554 46.5179C27.7173 46.5179 35.5981 40.6709 35.5981 30.9089C35.5472 21.7571 28.6834 15.3508 17.9045 15.3508ZM98.2373 37.5695C90.4074 37.5695 84.7129 31.0615 84.7129 23.2824C84.7129 14.7916 89.7464 9.19877 98.2373 9.19877C106.067 9.19877 112.168 15.1983 112.168 23.2824H120.964C120.964 10.6732 111.152 0.0469373 98.2373 0.0469373C84.357 -0.00390625 75.4086 9.65636 75.4086 23.2316C75.4086 35.8408 85.323 46.4671 98.2373 46.4671V37.5695Z" fill="#9C9C9C"/>
<path d="M97.9844 41.179C107.848 41.179 115.271 33.3999 115.271 23.0278H107.238C107.238 28.6206 103.17 32.6881 98.0352 32.6881V41.179H97.9844Z" fill="#9C9C9C"/>
</g>
<defs>
<clipPath id="clip0_5_9663">
<rect width="202.561" height="46.471" fill="white" transform="translate(0.160156 -0.00390625)"/>
</clipPath>
</defs>
</svg>
