<svg width="18" height="18" viewBox="0 0 18 18" fill="none" xmlns="http://www.w3.org/2000/svg">
<path d="M12.0004 16.306H6.00039C5.92466 16.3101 5.8489 16.2988 5.77765 16.2728C5.7064 16.2468 5.64115 16.2067 5.5858 16.1549C5.53046 16.103 5.48616 16.0405 5.45559 15.9711C5.42501 15.9017 5.40879 15.8269 5.40789 15.751V8.80603L3.00039 8.82853C2.89015 8.82274 2.78343 8.78774 2.69117 8.72712C2.59892 8.66649 2.52444 8.58243 2.47539 8.48353C2.43307 8.37997 2.42259 8.26613 2.44531 8.15658C2.46802 8.04703 2.52288 7.94674 2.60289 7.86853L8.60289 1.86853C8.71019 1.76672 8.85247 1.70996 9.00039 1.70996C9.1483 1.70996 9.29058 1.76672 9.39789 1.86853L15.3979 7.86853C15.4766 7.94758 15.5301 8.04827 15.5514 8.15778C15.5728 8.26729 15.5611 8.38068 15.5179 8.48353C15.4759 8.58615 15.4042 8.67384 15.312 8.73533C15.2198 8.79682 15.1112 8.82928 15.0004 8.82853H12.5329V15.751C12.5294 15.8933 12.4729 16.0292 12.3744 16.1319C12.2758 16.2346 12.1424 16.2967 12.0004 16.306ZM6.56289 15.181H11.4379V8.25103C11.4379 8.10185 11.4971 7.95878 11.6026 7.85329C11.7081 7.7478 11.8512 7.68853 12.0004 7.68853H13.6729L9.00039 3.05353L4.38039 7.68853H6.00039C6.14983 7.69762 6.29214 7.7556 6.40539 7.85353C6.5109 7.95892 6.57025 8.1019 6.57039 8.25103L6.56289 15.181Z" fill="#131315"/>
</svg>
