<svg width="16" height="16" viewBox="0 0 16 16" fill="none" xmlns="http://www.w3.org/2000/svg">
<path d="M8 9.3125C7.14707 9.3125 6.31329 9.05958 5.60411 8.58572C4.89492 8.11185 4.34217 7.43833 4.01577 6.65032C3.68937 5.86232 3.60397 4.99522 3.77037 4.15867C3.93676 3.32213 4.34749 2.55372 4.9506 1.9506C5.55372 1.34749 6.32213 0.936764 7.15868 0.770365C7.99522 0.603967 8.86232 0.689369 9.65032 1.01577C10.4383 1.34217 11.1119 1.89492 11.5857 2.60411C12.0596 3.31329 12.3125 4.14707 12.3125 5C12.3105 6.14314 11.8555 7.23889 11.0472 8.04721C10.2389 8.85553 9.14314 9.31052 8 9.3125ZM8 1.8125C7.36957 1.8125 6.7533 1.99945 6.22912 2.34969C5.70494 2.69994 5.29639 3.19776 5.05514 3.7802C4.81388 4.36264 4.75076 5.00354 4.87375 5.62185C4.99674 6.24017 5.30032 6.80813 5.7461 7.25391C6.19188 7.69969 6.75984 8.00326 7.37815 8.12626C7.99647 8.24925 8.63737 8.18612 9.21981 7.94487C9.80224 7.70361 10.3001 7.29506 10.6503 6.77088C11.0006 6.2467 11.1875 5.63043 11.1875 5C11.1855 4.15523 10.8491 3.34563 10.2517 2.74829C9.65437 2.15094 8.84477 1.81448 8 1.8125Z" fill="#131315"/>
<path d="M14.75 15.3125C14.6014 15.3106 14.4595 15.2507 14.3544 15.1456C14.2493 15.0405 14.1894 14.8986 14.1875 14.75C14.1855 13.3085 13.612 11.9266 12.5927 10.9073C11.5734 9.888 10.1915 9.31448 8.75 9.3125H7.25C5.80849 9.31448 4.4266 9.888 3.4073 10.9073C2.388 11.9266 1.81448 13.3085 1.8125 14.75C1.8125 14.8992 1.75324 15.0423 1.64775 15.1477C1.54226 15.2532 1.39918 15.3125 1.25 15.3125C1.10082 15.3125 0.957742 15.2532 0.852252 15.1477C0.746763 15.0423 0.6875 14.8992 0.6875 14.75C0.689485 13.0101 1.38153 11.3421 2.6118 10.1118C3.84208 8.88153 5.51013 8.18949 7.25 8.1875H8.75C10.4899 8.18949 12.1579 8.88153 13.3882 10.1118C14.6185 11.3421 15.3105 13.0101 15.3125 14.75C15.3106 14.8986 15.2507 15.0405 15.1456 15.1456C15.0405 15.2507 14.8986 15.3106 14.75 15.3125Z" fill="#131315"/>
</svg>
